<svg width="100" height="100" viewBox="0 0 100 100" fill="none" xmlns="http://www.w3.org/2000/svg">
<path d="M49.1056 12.9472L18.4555 28.2722C17.675 28.6625 17.2847 28.8577 17.2847 29.1667C17.2847 29.4757 17.675 29.6708 18.4555 30.0611L18.4555 30.0611L49.1056 45.3861C49.5445 45.6056 49.764 45.7153 50 45.7153C50.2361 45.7153 50.4555 45.6056 50.8944 45.3861L81.5445 30.0611C82.325 29.6708 82.7153 29.4757 82.7153 29.1667C82.7153 28.8577 82.325 28.6625 81.5445 28.2722L50.8944 12.9472C50.4555 12.7278 50.2361 12.618 50 12.618C49.764 12.618 49.5445 12.7278 49.1056 12.9472Z" fill="black"/>
<path fill-rule="evenodd" clip-rule="evenodd" d="M29.1658 43.7516L48.2111 53.2743C49.089 53.7132 49.5279 53.9327 50 53.9327C50.4721 53.9327 50.911 53.7132 51.7888 53.2743L70.8343 43.7516L81.5445 49.1067C82.3251 49.497 82.7153 49.6921 82.7153 50.0012C82.7153 50.3102 82.3251 50.5053 81.5445 50.8956L50.8945 66.2206C50.4555 66.4401 50.2361 66.5498 50 66.5498C49.764 66.5498 49.5445 66.4401 49.1056 66.2206L18.4555 50.8956C17.675 50.5053 17.2847 50.3102 17.2847 50.0012C17.2847 49.6921 17.675 49.497 18.4555 49.1067L29.1658 43.7516Z" fill="black"/>
<path fill-rule="evenodd" clip-rule="evenodd" d="M29.1637 64.585L48.2112 74.1088C49.0891 74.5477 49.528 74.7671 50.0001 74.7671C50.4722 74.7671 50.9111 74.5477 51.789 74.1088L70.8364 64.585L81.5445 69.9391C82.3251 70.3293 82.7153 70.5245 82.7153 70.8335C82.7153 71.1425 82.3251 71.3377 81.5445 71.7279L50.8945 87.053C50.4555 87.2724 50.2361 87.3821 50 87.3821C49.764 87.3821 49.5445 87.2724 49.1056 87.053L18.4555 71.7279C17.675 71.3377 17.2847 71.1425 17.2847 70.8335C17.2847 70.5245 17.675 70.3293 18.4555 69.9391L29.1637 64.585Z" fill="black"/>
</svg>