<svg width="100" height="100" viewBox="0 0 100 100" fill="none" xmlns="http://www.w3.org/2000/svg">
<path d="M73.577 37.0257L25.6581 21.0527C25.3578 20.9526 25.2076 20.9026 25.1038 20.9774C25 21.0522 25 21.2105 25 21.5271V54.1667L73.577 37.9744C74.1653 37.7783 74.4594 37.6802 74.4594 37.5C74.4594 37.3198 74.1653 37.2218 73.577 37.0257Z" fill="black"/>
<path d="M25 54.1667V21.5271C25 21.2105 25 21.0522 25.1038 20.9774C25.2076 20.9026 25.3578 20.9526 25.6581 21.0527L73.577 37.0257C74.1653 37.2218 74.4594 37.3198 74.4594 37.5C74.4594 37.6802 74.1653 37.7783 73.577 37.9744L25 54.1667ZM25 54.1667V75V79.1667" stroke="black" stroke-width="2" stroke-linecap="round"/>
</svg>
