<svg width="100" height="100" viewBox="0 0 100 100" fill="none" xmlns="http://www.w3.org/2000/svg">
<path fill-rule="evenodd" clip-rule="evenodd" d="M50 87.5C70.7107 87.5 87.5 70.7107 87.5 50C87.5 29.2893 70.7107 12.5 50 12.5C29.2893 12.5 12.5 29.2893 12.5 50C12.5 70.7107 29.2893 87.5 50 87.5ZM51 27.0833C51 26.531 50.5523 26.0833 50 26.0833C49.4477 26.0833 49 26.531 49 27.0833V49.75C49 50.4404 49.5596 51 50.25 51H64.5833C65.1356 51 65.5833 50.5523 65.5833 50C65.5833 49.4477 65.1356 49 64.5833 49H51V27.0833Z" fill="black"/>
</svg>
